<?xml version="1.0" encoding="utf-8"?>
<!-- Generator: Adobe Illustrator 16.0.4, SVG Export Plug-In . SVG Version: 6.00 Build 0)  -->
<!DOCTYPE svg PUBLIC "-//W3C//DTD SVG 1.1//EN" "http://www.w3.org/Graphics/SVG/1.1/DTD/svg11.dtd">
<svg version="1.1" id="Layer_1" xmlns="http://www.w3.org/2000/svg" xmlns:xlink="http://www.w3.org/1999/xlink" x="0px" y="0px"
	 width="594.583px" height="374.531px" viewBox="0 0 594.583 374.531" enable-background="new 0 0 594.583 374.531"
	 xml:space="preserve">
<path fill="none" stroke="#ED1C24" stroke-width="5" d="M45.007,360.529c15.107-87.283,25.932-180.142,54.214-264.61
	c31.17-93.095,54.138,17.688,65.096,53.934c11.354,37.558,23.177,74.976,34.309,112.6c26.534,89.679,79.275-25.286,92.183-45.57
	c11.749-18.462,20.938-43.699,69.798-48.289c70.298-6.604,177.054-4.848,224.858-5.774"/>
<g>
	<path fill="#BCBEC0" d="M150.917,56.582c0.866-0.165,2-0.289,3.444-0.289c1.773,0,3.073,0.413,3.898,1.155
		c0.763,0.66,1.237,1.67,1.237,2.908c0,1.258-0.371,2.248-1.093,2.97c-0.949,1.011-2.496,1.526-4.249,1.526
		c-0.536,0-1.031-0.021-1.443-0.124v5.568h-1.794V56.582z M152.711,63.264c0.392,0.103,0.907,0.144,1.485,0.144
		c2.186,0,3.485-1.072,3.485-2.949c0-1.856-1.299-2.743-3.279-2.743c-0.784,0-1.382,0.083-1.691,0.144V63.264z"/>
	<path fill="#BCBEC0" d="M162.345,65.615c0.042,2.454,1.588,3.465,3.403,3.465c1.299,0,2.104-0.227,2.764-0.495l0.33,1.279
		c-0.639,0.289-1.753,0.639-3.341,0.639c-3.053,0-4.909-2.042-4.909-5.032c0-3.032,1.794-5.403,4.702-5.403
		c3.259,0,4.104,2.867,4.104,4.702c0,0.371-0.021,0.66-0.062,0.866L162.345,65.615z M167.646,64.315
		c0.021-1.134-0.475-2.949-2.496-2.949c-1.856,0-2.64,1.691-2.784,2.949H167.646z"/>
	<path fill="#BCBEC0" d="M178.679,67.904c0,0.866,0.041,1.712,0.144,2.393h-1.629l-0.165-1.258h-0.062
		c-0.536,0.784-1.629,1.485-3.052,1.485c-2.021,0-3.053-1.423-3.053-2.867c0-2.413,2.145-3.733,6.002-3.712v-0.207
		c0-0.825-0.227-2.331-2.269-2.31c-0.949,0-1.918,0.268-2.619,0.742l-0.413-1.217c0.825-0.516,2.042-0.866,3.3-0.866
		c3.073,0,3.815,2.083,3.815,4.083V67.904z M176.905,65.202c-1.98-0.041-4.228,0.31-4.228,2.248c0,1.196,0.784,1.732,1.691,1.732
		c1.32,0,2.166-0.825,2.454-1.67c0.062-0.186,0.083-0.392,0.083-0.578V65.202z"/>
	<path fill="#BCBEC0" d="M183.401,64.893h0.042c0.248-0.351,0.577-0.805,0.866-1.135l2.949-3.444h2.166l-3.857,4.104l4.393,5.878
		h-2.207l-3.424-4.806l-0.928,1.052v3.753h-1.815V55.653h1.815V64.893z"/>
	<path fill="#BCBEC0" d="M199.694,70.523c-2.681,0-4.785-1.98-4.785-5.136c0-3.341,2.207-5.3,4.95-5.3
		c2.867,0,4.806,2.083,4.806,5.115c0,3.712-2.578,5.321-4.95,5.321H199.694z M199.756,69.162c1.732,0,3.032-1.629,3.032-3.898
		c0-1.691-0.846-3.815-2.99-3.815c-2.125,0-3.053,1.98-3.053,3.877c0,2.186,1.238,3.836,2.991,3.836H199.756z"/>
	<path fill="#BCBEC0" d="M207.119,70.296v-8.6h-1.382v-1.382h1.382V59.84c0-1.402,0.33-2.681,1.176-3.485
		c0.681-0.66,1.588-0.928,2.413-0.928c0.66,0,1.196,0.145,1.547,0.289l-0.227,1.402c-0.289-0.124-0.639-0.227-1.176-0.227
		c-1.526,0-1.938,1.361-1.938,2.887v0.537h2.413v1.382h-2.393v8.6H207.119z"/>
	<path fill="#BCBEC0" d="M219.204,56.396v13.901h-1.815V56.396H219.204z"/>
	<path fill="#BCBEC0" d="M222.277,63.016c0-1.052-0.021-1.877-0.083-2.702h1.609l0.103,1.629h0.042
		c0.495-0.928,1.65-1.856,3.3-1.856c1.382,0,3.527,0.825,3.527,4.249v5.96h-1.815v-5.754c0-1.609-0.598-2.97-2.31-2.97
		c-1.176,0-2.104,0.846-2.434,1.856c-0.083,0.227-0.124,0.557-0.124,0.845v6.022h-1.815V63.016z"/>
	<path fill="#BCBEC0" d="M233.888,70.296v-8.6h-1.382v-1.382h1.382V59.84c0-1.402,0.33-2.681,1.176-3.485
		c0.681-0.66,1.588-0.928,2.413-0.928c0.66,0,1.196,0.145,1.547,0.289l-0.227,1.402c-0.289-0.124-0.639-0.227-1.176-0.227
		c-1.526,0-1.938,1.361-1.938,2.887v0.537h2.413v1.382h-2.393v8.6H233.888z"/>
	<path fill="#BCBEC0" d="M239.745,55.653h1.815v14.643h-1.815V55.653z"/>
	<path fill="#BCBEC0" d="M251.604,67.904c0,0.866,0.041,1.712,0.144,2.393h-1.629l-0.165-1.258h-0.062
		c-0.536,0.784-1.629,1.485-3.052,1.485c-2.021,0-3.053-1.423-3.053-2.867c0-2.413,2.145-3.733,6.002-3.712v-0.207
		c0-0.825-0.227-2.331-2.269-2.31c-0.948,0-1.918,0.268-2.619,0.742l-0.413-1.217c0.825-0.516,2.042-0.866,3.3-0.866
		c3.073,0,3.815,2.083,3.815,4.083V67.904z M249.83,65.202c-1.98-0.041-4.228,0.31-4.228,2.248c0,1.196,0.784,1.732,1.691,1.732
		c1.32,0,2.166-0.825,2.454-1.67c0.062-0.186,0.083-0.392,0.083-0.578V65.202z"/>
	<path fill="#BCBEC0" d="M256.617,57.922v2.393h2.599v1.382h-2.599v5.383c0,1.237,0.351,1.938,1.361,1.938
		c0.495,0,0.784-0.041,1.052-0.124l0.082,1.382c-0.351,0.124-0.907,0.248-1.608,0.248c-0.846,0-1.526-0.289-1.959-0.763
		c-0.495-0.557-0.701-1.444-0.701-2.619v-5.445h-1.547v-1.382h1.547v-1.836L256.617,57.922z"/>
	<path fill="#BCBEC0" d="M262.167,65.615c0.042,2.454,1.588,3.465,3.403,3.465c1.299,0,2.104-0.227,2.764-0.495l0.33,1.279
		c-0.639,0.289-1.753,0.639-3.341,0.639c-3.052,0-4.909-2.042-4.909-5.032c0-3.032,1.794-5.403,4.702-5.403
		c3.259,0,4.104,2.867,4.104,4.702c0,0.371-0.021,0.66-0.062,0.866L262.167,65.615z M267.468,64.315
		c0.021-1.134-0.475-2.949-2.496-2.949c-1.856,0-2.64,1.691-2.784,2.949H267.468z"/>
	<path fill="#BCBEC0" d="M280.09,55.653v12.065c0,0.887,0.021,1.897,0.083,2.578h-1.629l-0.083-1.732h-0.041
		c-0.557,1.114-1.753,1.959-3.382,1.959c-2.413,0-4.29-2.042-4.29-5.074c-0.021-3.341,2.062-5.362,4.476-5.362
		c1.547,0,2.578,0.722,3.011,1.505h0.041v-5.939H280.09z M278.275,64.377c0-0.248-0.021-0.537-0.083-0.784
		c-0.268-1.135-1.258-2.083-2.619-2.083c-1.877,0-2.991,1.65-2.991,3.836c0,2.042,1.011,3.712,2.949,3.712
		c1.217,0,2.331-0.825,2.661-2.166c0.062-0.248,0.083-0.495,0.083-0.784V64.377z"/>
	<path fill="#BCBEC0" d="M294.712,63.779h-5.383v5.012h6.022v1.505h-7.837V56.396h7.528v1.506h-5.713v4.393h5.383V63.779z"/>
	<path fill="#BCBEC0" d="M298.465,60.314l1.423,2.124c0.371,0.578,0.68,1.073,1.01,1.629h0.062c0.33-0.578,0.66-1.093,1.011-1.629
		l1.382-2.124h1.98l-3.403,4.826l3.485,5.156h-2.062l-1.464-2.248c-0.392-0.578-0.722-1.134-1.073-1.732h-0.041
		c-0.33,0.598-0.681,1.134-1.052,1.732l-1.444,2.248h-2l3.547-5.094l-3.382-4.888H298.465z"/>
	<path fill="#BCBEC0" d="M307.168,63.573c0-1.278-0.021-2.31-0.083-3.258h1.629l0.103,1.711h0.042
		c0.722-1.237,1.918-1.938,3.527-1.938c2.433,0,4.249,2.042,4.249,5.074c0,3.588-2.207,5.362-4.538,5.362
		c-1.34,0-2.475-0.578-3.073-1.568h-0.042v5.424h-1.815V63.573z M308.983,66.233c0,0.248,0.021,0.516,0.083,0.743
		c0.31,1.258,1.423,2.124,2.702,2.124c1.918,0,3.031-1.567,3.031-3.856c0-2.001-1.031-3.712-2.949-3.712
		c-1.237,0-2.413,0.866-2.763,2.227c-0.042,0.248-0.104,0.516-0.104,0.743V66.233z"/>
	<path fill="#BCBEC0" d="M319.955,65.615c0.041,2.454,1.588,3.465,3.402,3.465c1.3,0,2.104-0.227,2.764-0.495l0.33,1.279
		c-0.64,0.289-1.753,0.639-3.341,0.639c-3.053,0-4.908-2.042-4.908-5.032c0-3.032,1.794-5.403,4.702-5.403
		c3.259,0,4.104,2.867,4.104,4.702c0,0.371-0.021,0.66-0.062,0.866L319.955,65.615z M325.254,64.315
		c0.021-1.134-0.474-2.949-2.495-2.949c-1.856,0-2.64,1.691-2.784,2.949H325.254z"/>
	<path fill="#BCBEC0" d="M336.372,69.946c-0.475,0.227-1.526,0.578-2.867,0.578c-3.011,0-4.97-2.042-4.97-5.115
		c0-3.073,2.104-5.321,5.362-5.321c1.072,0,2.021,0.268,2.516,0.536L336,62.005c-0.434-0.227-1.114-0.474-2.104-0.474
		c-2.29,0-3.527,1.711-3.527,3.795c0,2.31,1.485,3.733,3.465,3.733c1.031,0,1.712-0.248,2.228-0.475L336.372,69.946z"/>
	<path fill="#BCBEC0" d="M340.948,57.922v2.393h2.599v1.382h-2.599v5.383c0,1.237,0.351,1.938,1.361,1.938
		c0.495,0,0.784-0.041,1.052-0.124l0.083,1.382c-0.351,0.124-0.908,0.248-1.609,0.248c-0.845,0-1.525-0.289-1.959-0.763
		c-0.495-0.557-0.701-1.444-0.701-2.619v-5.445h-1.547v-1.382h1.547v-1.836L340.948,57.922z"/>
	<path fill="#BCBEC0" d="M352.621,67.904c0,0.866,0.042,1.712,0.145,2.393h-1.629l-0.165-1.258h-0.062
		c-0.536,0.784-1.629,1.485-3.052,1.485c-2.021,0-3.053-1.423-3.053-2.867c0-2.413,2.146-3.733,6.002-3.712v-0.207
		c0-0.825-0.227-2.331-2.269-2.31c-0.949,0-1.918,0.268-2.619,0.742l-0.413-1.217c0.825-0.516,2.042-0.866,3.3-0.866
		c3.073,0,3.815,2.083,3.815,4.083V67.904z M350.847,65.202c-1.979-0.041-4.228,0.31-4.228,2.248c0,1.196,0.783,1.732,1.69,1.732
		c1.32,0,2.166-0.825,2.455-1.67c0.062-0.186,0.082-0.392,0.082-0.578V65.202z"/>
	<path fill="#BCBEC0" d="M357.634,57.922v2.393h2.599v1.382h-2.599v5.383c0,1.237,0.351,1.938,1.361,1.938
		c0.495,0,0.784-0.041,1.052-0.124l0.083,1.382c-0.351,0.124-0.907,0.248-1.609,0.248c-0.845,0-1.525-0.289-1.959-0.763
		c-0.495-0.557-0.701-1.444-0.701-2.619v-5.445h-1.547v-1.382h1.547v-1.836L357.634,57.922z"/>
	<path fill="#BCBEC0" d="M363.141,58.479c-0.681,0-1.135-0.536-1.135-1.175c0-0.64,0.475-1.155,1.176-1.155s1.155,0.515,1.155,1.155
		c0,0.639-0.454,1.175-1.176,1.175H363.141z M362.275,70.296v-9.982h1.814v9.982H362.275z"/>
	<path fill="#BCBEC0" d="M371.164,70.523c-2.681,0-4.784-1.98-4.784-5.136c0-3.341,2.206-5.3,4.949-5.3
		c2.867,0,4.806,2.083,4.806,5.115c0,3.712-2.578,5.321-4.95,5.321H371.164z M371.226,69.162c1.732,0,3.031-1.629,3.031-3.898
		c0-1.691-0.846-3.815-2.99-3.815c-2.125,0-3.053,1.98-3.053,3.877c0,2.186,1.237,3.836,2.99,3.836H371.226z"/>
	<path fill="#BCBEC0" d="M378.423,63.016c0-1.052-0.021-1.877-0.083-2.702h1.609l0.103,1.629h0.041
		c0.495-0.928,1.65-1.856,3.3-1.856c1.382,0,3.527,0.825,3.527,4.249v5.96h-1.815v-5.754c0-1.609-0.598-2.97-2.31-2.97
		c-1.176,0-2.104,0.846-2.434,1.856c-0.083,0.227-0.124,0.557-0.124,0.845v6.022h-1.814V63.016z"/>
	<path fill="#BCBEC0" d="M389.622,68.461c0.557,0.33,1.506,0.701,2.413,0.701c1.3,0,1.918-0.639,1.918-1.485
		c0-0.866-0.516-1.341-1.835-1.835c-1.815-0.66-2.661-1.629-2.661-2.826c0-1.609,1.32-2.929,3.444-2.929
		c1.011,0,1.897,0.268,2.434,0.619l-0.433,1.299c-0.392-0.227-1.114-0.577-2.042-0.577c-1.072,0-1.65,0.619-1.65,1.361
		c0,0.846,0.578,1.217,1.877,1.712c1.712,0.639,2.619,1.505,2.619,3.011c0,1.773-1.382,3.011-3.712,3.011
		c-1.093,0-2.104-0.289-2.805-0.702L389.622,68.461z"/>
</g>
<g>
	<path fill="#BCBEC0" d="M342.536,139.467c0.866-0.165,2-0.289,3.444-0.289c1.773,0,3.073,0.413,3.897,1.155
		c0.764,0.66,1.238,1.67,1.238,2.908c0,1.258-0.371,2.248-1.094,2.97c-0.948,1.011-2.495,1.526-4.248,1.526
		c-0.537,0-1.031-0.021-1.443-0.124v5.568h-1.795V139.467z M344.331,146.149c0.391,0.103,0.906,0.144,1.484,0.144
		c2.186,0,3.485-1.072,3.485-2.949c0-1.856-1.3-2.743-3.279-2.743c-0.784,0-1.382,0.083-1.69,0.144V146.149z"/>
	<path fill="#BCBEC0" d="M353.344,138.539h1.815v14.643h-1.815V138.539z"/>
	<path fill="#BCBEC0" d="M365.204,150.79c0,0.866,0.041,1.712,0.145,2.393h-1.629l-0.165-1.258h-0.062
		c-0.537,0.784-1.63,1.485-3.053,1.485c-2.021,0-3.053-1.423-3.053-2.867c0-2.413,2.145-3.733,6.002-3.712v-0.207
		c0-0.825-0.227-2.331-2.27-2.31c-0.947,0-1.918,0.268-2.619,0.742l-0.412-1.217c0.825-0.516,2.042-0.866,3.301-0.866
		c3.072,0,3.814,2.083,3.814,4.083V150.79z M363.43,148.088c-1.98-0.041-4.229,0.31-4.229,2.248c0,1.196,0.784,1.732,1.691,1.732
		c1.32,0,2.166-0.825,2.455-1.67c0.062-0.186,0.082-0.392,0.082-0.578V148.088z"/>
	<path fill="#BCBEC0" d="M370.217,140.808v2.393h2.599v1.382h-2.599v5.383c0,1.237,0.351,1.938,1.361,1.938
		c0.494,0,0.783-0.041,1.052-0.124l0.082,1.382c-0.351,0.124-0.907,0.248-1.608,0.248c-0.846,0-1.526-0.289-1.959-0.763
		c-0.495-0.557-0.701-1.444-0.701-2.619v-5.445h-1.547V143.2h1.547v-1.836L370.217,140.808z"/>
	<path fill="#BCBEC0" d="M375.768,148.5c0.041,2.454,1.588,3.465,3.402,3.465c1.3,0,2.104-0.227,2.764-0.495l0.33,1.279
		c-0.639,0.289-1.753,0.639-3.341,0.639c-3.052,0-4.909-2.042-4.909-5.032c0-3.032,1.795-5.403,4.703-5.403
		c3.258,0,4.104,2.867,4.104,4.702c0,0.371-0.02,0.66-0.062,0.866L375.768,148.5z M381.069,147.201
		c0.02-1.134-0.475-2.949-2.496-2.949c-1.856,0-2.641,1.691-2.784,2.949H381.069z"/>
	<path fill="#BCBEC0" d="M392.102,150.79c0,0.866,0.041,1.712,0.145,2.393h-1.63l-0.165-1.258h-0.062
		c-0.536,0.784-1.63,1.485-3.052,1.485c-2.021,0-3.053-1.423-3.053-2.867c0-2.413,2.145-3.733,6.002-3.712v-0.207
		c0-0.825-0.228-2.331-2.27-2.31c-0.949,0-1.918,0.268-2.619,0.742l-0.412-1.217c0.824-0.516,2.041-0.866,3.3-0.866
		c3.073,0,3.815,2.083,3.815,4.083V150.79z M390.329,148.088c-1.98-0.041-4.229,0.31-4.229,2.248c0,1.196,0.783,1.732,1.691,1.732
		c1.32,0,2.166-0.825,2.454-1.67c0.062-0.186,0.083-0.392,0.083-0.578V148.088z"/>
	<path fill="#BCBEC0" d="M403.362,150.46c0,1.031,0.021,1.938,0.083,2.722h-1.608l-0.104-1.629h-0.041
		c-0.454,0.804-1.526,1.856-3.301,1.856c-1.566,0-3.443-0.887-3.443-4.373V143.2h1.814v5.506c0,1.897,0.599,3.197,2.228,3.197
		c1.217,0,2.062-0.846,2.393-1.67c0.103-0.248,0.165-0.578,0.165-0.928V143.2h1.814V150.46z"/>
	<path fill="#BCBEC0" d="M414.808,153.409c-2.681,0-4.784-1.98-4.784-5.136c0-3.341,2.207-5.3,4.949-5.3
		c2.867,0,4.806,2.083,4.806,5.115c0,3.712-2.578,5.321-4.95,5.321H414.808z M414.87,152.048c1.732,0,3.032-1.629,3.032-3.898
		c0-1.691-0.846-3.815-2.991-3.815c-2.123,0-3.052,1.98-3.052,3.877c0,2.186,1.237,3.836,2.991,3.836H414.87z"/>
	<path fill="#BCBEC0" d="M422.233,153.182v-8.6h-1.382V143.2h1.382v-0.475c0-1.402,0.33-2.681,1.176-3.485
		c0.681-0.66,1.588-0.928,2.413-0.928c0.659,0,1.196,0.145,1.547,0.289l-0.228,1.402c-0.288-0.124-0.639-0.227-1.176-0.227
		c-1.525,0-1.938,1.361-1.938,2.887v0.537h2.412v1.382h-2.393v8.6H422.233z"/>
	<path fill="#BCBEC0" d="M432.524,139.467c0.866-0.165,2-0.289,3.444-0.289c1.773,0,3.073,0.413,3.897,1.155
		c0.764,0.66,1.238,1.67,1.238,2.908c0,1.258-0.371,2.248-1.094,2.97c-0.948,1.011-2.495,1.526-4.248,1.526
		c-0.537,0-1.031-0.021-1.443-0.124v5.568h-1.795V139.467z M434.319,146.149c0.391,0.103,0.906,0.144,1.484,0.144
		c2.186,0,3.485-1.072,3.485-2.949c0-1.856-1.3-2.743-3.279-2.743c-0.784,0-1.382,0.083-1.69,0.144V146.149z"/>
	<path fill="#BCBEC0" d="M443.108,146.314c0-1.176-0.021-2.187-0.083-3.114h1.588l0.083,1.959h0.062
		c0.454-1.34,1.567-2.186,2.784-2.186c0.186,0,0.33,0.021,0.495,0.062v1.691c-0.206-0.021-0.392-0.041-0.64-0.041
		c-1.279,0-2.186,0.969-2.434,2.31c-0.041,0.269-0.062,0.557-0.062,0.866v5.321h-1.814L443.108,146.314z"/>
	<path fill="#BCBEC0" d="M453.772,153.409c-2.681,0-4.784-1.98-4.784-5.136c0-3.341,2.207-5.3,4.95-5.3
		c2.866,0,4.805,2.083,4.805,5.115c0,3.712-2.578,5.321-4.949,5.321H453.772z M453.834,152.048c1.732,0,3.031-1.629,3.031-3.898
		c0-1.691-0.846-3.815-2.99-3.815c-2.124,0-3.053,1.98-3.053,3.877c0,2.186,1.238,3.836,2.991,3.836H453.834z"/>
	<path fill="#BCBEC0" d="M469.672,138.539v12.065c0,0.887,0.021,1.897,0.083,2.578h-1.63l-0.082-1.732h-0.041
		c-0.557,1.114-1.754,1.959-3.383,1.959c-2.412,0-4.289-2.042-4.289-5.074c-0.021-3.341,2.062-5.362,4.475-5.362
		c1.547,0,2.578,0.722,3.012,1.505h0.041v-5.939H469.672z M467.858,147.263c0-0.248-0.021-0.537-0.082-0.784
		c-0.269-1.135-1.258-2.083-2.619-2.083c-1.877,0-2.991,1.65-2.991,3.836c0,2.042,1.011,3.712,2.949,3.712
		c1.217,0,2.331-0.825,2.661-2.166c0.062-0.248,0.082-0.495,0.082-0.784V147.263z"/>
	<path fill="#BCBEC0" d="M481.037,150.46c0,1.031,0.021,1.938,0.083,2.722h-1.609l-0.104-1.629h-0.041
		c-0.453,0.804-1.525,1.856-3.3,1.856c-1.567,0-3.444-0.887-3.444-4.373V143.2h1.815v5.506c0,1.897,0.599,3.197,2.228,3.197
		c1.217,0,2.062-0.846,2.393-1.67c0.103-0.248,0.164-0.578,0.164-0.928V143.2h1.815V150.46z"/>
	<path fill="#BCBEC0" d="M491.163,152.832c-0.475,0.227-1.525,0.578-2.867,0.578c-3.01,0-4.97-2.042-4.97-5.115
		c0-3.073,2.104-5.321,5.362-5.321c1.072,0,2.021,0.268,2.516,0.536l-0.412,1.382c-0.434-0.227-1.113-0.474-2.104-0.474
		c-2.289,0-3.527,1.711-3.527,3.795c0,2.31,1.485,3.733,3.465,3.733c1.031,0,1.713-0.248,2.229-0.475L491.163,152.832z"/>
	<path fill="#BCBEC0" d="M495.741,140.808v2.393h2.598v1.382h-2.598v5.383c0,1.237,0.35,1.938,1.36,1.938
		c0.495,0,0.784-0.041,1.052-0.124l0.082,1.382c-0.35,0.124-0.906,0.248-1.607,0.248c-0.846,0-1.527-0.289-1.96-0.763
		c-0.495-0.557-0.701-1.444-0.701-2.619v-5.445h-1.547V143.2h1.547v-1.836L495.741,140.808z"/>
	<path fill="#BCBEC0" d="M501.247,141.364c-0.68,0-1.135-0.536-1.135-1.175c0-0.64,0.475-1.155,1.176-1.155s1.155,0.515,1.155,1.155
		c0,0.639-0.454,1.175-1.175,1.175H501.247z M500.38,153.182V143.2h1.815v9.982H500.38z"/>
	<path fill="#BCBEC0" d="M505.907,143.2l1.961,5.589c0.328,0.928,0.598,1.753,0.803,2.578h0.062c0.227-0.825,0.516-1.65,0.846-2.578
		l1.939-5.589h1.896l-3.918,9.982h-1.732l-3.795-9.982H505.907z"/>
	<path fill="#BCBEC0" d="M515.993,141.364c-0.682,0-1.135-0.536-1.135-1.175c0-0.64,0.475-1.155,1.176-1.155
		s1.154,0.515,1.154,1.155c0,0.639-0.453,1.175-1.176,1.175H515.993z M515.125,153.182V143.2h1.814v9.982H515.125z"/>
	<path fill="#BCBEC0" d="M522.137,140.808v2.393h2.6v1.382h-2.6v5.383c0,1.237,0.352,1.938,1.361,1.938
		c0.496,0,0.785-0.041,1.053-0.124l0.082,1.382c-0.35,0.124-0.906,0.248-1.609,0.248c-0.844,0-1.525-0.289-1.959-0.763
		c-0.494-0.557-0.701-1.444-0.701-2.619v-5.445h-1.547V143.2h1.547v-1.836L522.137,140.808z"/>
	<path fill="#BCBEC0" d="M527.62,143.2l2.166,5.898c0.246,0.66,0.494,1.444,0.66,2.042h0.041c0.186-0.598,0.391-1.361,0.639-2.083
		l1.98-5.857h1.918l-2.723,7.115c-1.299,3.423-2.186,5.177-3.424,6.27c-0.906,0.763-1.773,1.073-2.227,1.155l-0.455-1.526
		c0.455-0.124,1.053-0.413,1.588-0.887c0.496-0.392,1.094-1.093,1.527-2.021c0.082-0.186,0.145-0.309,0.145-0.433
		c0-0.103-0.041-0.247-0.145-0.454l-3.672-9.219H527.62z"/>
</g>
<g>
	<path fill="#BCBEC0" d="M297.523,242.667c0.805,0.516,1.959,0.906,3.197,0.906c1.836,0,2.908-0.948,2.908-2.371
		c0-1.279-0.743-2.042-2.619-2.743c-2.269-0.825-3.671-2.021-3.671-3.96c0-2.166,1.794-3.773,4.496-3.773
		c1.402,0,2.455,0.33,3.053,0.68l-0.495,1.465c-0.433-0.269-1.361-0.66-2.619-0.66c-1.897,0-2.62,1.135-2.62,2.083
		c0,1.3,0.846,1.938,2.764,2.681c2.351,0.929,3.527,2.043,3.527,4.084c0,2.145-1.567,4.021-4.847,4.021
		c-1.341,0-2.805-0.412-3.547-0.907L297.523,242.667z"/>
	<path fill="#BCBEC0" d="M307.816,230.21h1.815v14.643h-1.815V230.21z"/>
	<path fill="#BCBEC0" d="M316.705,245.08c-2.681,0-4.785-1.979-4.785-5.135c0-3.342,2.207-5.301,4.95-5.301
		c2.867,0,4.806,2.083,4.806,5.115c0,3.712-2.578,5.32-4.95,5.32H316.705z M316.766,243.718c1.732,0,3.032-1.629,3.032-3.897
		c0-1.691-0.846-3.815-2.991-3.815c-2.124,0-3.052,1.98-3.052,3.877c0,2.187,1.238,3.836,2.991,3.836H316.766z"/>
	<path fill="#BCBEC0" d="M323.963,238.129c0-1.278-0.02-2.31-0.082-3.259h1.629l0.104,1.712h0.041
		c0.723-1.237,1.918-1.938,3.527-1.938c2.434,0,4.248,2.042,4.248,5.074c0,3.588-2.207,5.361-4.537,5.361
		c-1.34,0-2.475-0.577-3.072-1.567h-0.042v5.425h-1.815V238.129z M325.779,240.791c0,0.247,0.021,0.516,0.083,0.742
		c0.309,1.258,1.423,2.124,2.701,2.124c1.918,0,3.032-1.567,3.032-3.856c0-2.001-1.031-3.713-2.95-3.713
		c-1.236,0-2.412,0.867-2.763,2.228c-0.042,0.247-0.104,0.516-0.104,0.743V240.791z"/>
	<path fill="#BCBEC0" d="M336.75,240.171c0.041,2.454,1.588,3.465,3.402,3.465c1.3,0,2.104-0.227,2.764-0.495l0.33,1.278
		c-0.639,0.289-1.753,0.64-3.341,0.64c-3.052,0-4.909-2.042-4.909-5.032c0-3.031,1.795-5.403,4.703-5.403
		c3.258,0,4.104,2.866,4.104,4.702c0,0.371-0.02,0.66-0.062,0.866L336.75,240.171z M342.051,238.873
		c0.02-1.135-0.475-2.949-2.496-2.949c-1.856,0-2.641,1.69-2.784,2.949H342.051z"/>
	<path fill="#BCBEC0" d="M354.487,245.08c-2.682,0-4.785-1.979-4.785-5.135c0-3.342,2.207-5.301,4.949-5.301
		c2.867,0,4.807,2.083,4.807,5.115c0,3.712-2.578,5.32-4.95,5.32H354.487z M354.548,243.718c1.732,0,3.032-1.629,3.032-3.897
		c0-1.691-0.846-3.815-2.99-3.815c-2.125,0-3.053,1.98-3.053,3.877c0,2.187,1.237,3.836,2.99,3.836H354.548z"/>
	<path fill="#BCBEC0" d="M361.911,244.853v-8.6h-1.381v-1.383h1.381v-0.475c0-1.402,0.33-2.681,1.176-3.484
		c0.682-0.66,1.588-0.929,2.414-0.929c0.659,0,1.195,0.145,1.547,0.289l-0.228,1.402c-0.288-0.124-0.64-0.228-1.176-0.228
		c-1.526,0-1.938,1.361-1.938,2.888v0.536h2.413v1.383h-2.393v8.6H361.911z"/>
	<path fill="#BCBEC0" d="M379.379,238.335h-5.383v5.012h6.021v1.506h-7.836v-13.9h7.527v1.506h-5.713v4.393h5.383V238.335z"/>
	<path fill="#BCBEC0" d="M382.287,237.573c0-1.052-0.021-1.877-0.083-2.702h1.609l0.104,1.629h0.041
		c0.494-0.928,1.65-1.855,3.3-1.855c1.382,0,3.526,0.825,3.526,4.248v5.961h-1.814v-5.754c0-1.609-0.598-2.971-2.311-2.971
		c-1.176,0-2.104,0.846-2.434,1.857c-0.082,0.227-0.123,0.557-0.123,0.845v6.022h-1.815V237.573z"/>
	<path fill="#BCBEC0" d="M393.733,230.21h1.814v14.643h-1.814V230.21z"/>
	<path fill="#BCBEC0" d="M399.424,233.035c-0.68,0-1.134-0.535-1.134-1.175s0.475-1.155,1.176-1.155s1.155,0.516,1.155,1.155
		s-0.454,1.175-1.176,1.175H399.424z M398.559,244.853v-9.982h1.814v9.982H398.559z"/>
	<path fill="#BCBEC0" d="M411.923,243.388c0,2.311-0.474,3.692-1.423,4.579c-0.99,0.887-2.393,1.196-3.65,1.196
		c-1.196,0-2.517-0.289-3.32-0.825l0.453-1.402c0.66,0.433,1.691,0.804,2.929,0.804c1.856,0,3.218-0.969,3.218-3.506v-1.093h-0.041
		c-0.537,0.929-1.63,1.671-3.177,1.671c-2.475,0-4.249-2.104-4.249-4.889c0-3.382,2.207-5.279,4.518-5.279
		c1.732,0,2.66,0.887,3.113,1.712h0.042l0.062-1.485h1.609c-0.062,0.701-0.083,1.506-0.083,2.723V243.388z M410.108,238.79
		c0-0.288-0.02-0.557-0.103-0.804c-0.33-1.073-1.196-1.939-2.536-1.939c-1.732,0-2.971,1.465-2.971,3.795
		c0,1.938,1.011,3.589,2.949,3.589c1.135,0,2.145-0.702,2.516-1.877c0.104-0.288,0.145-0.64,0.145-0.97V238.79z"/>
	<path fill="#BCBEC0" d="M414.913,230.21h1.815v6.229h0.042c0.288-0.516,0.742-0.99,1.299-1.279c0.536-0.33,1.176-0.516,1.855-0.516
		c1.342,0,3.486,0.825,3.486,4.27v5.939h-1.814v-5.733c0-1.63-0.599-2.97-2.311-2.97c-1.176,0-2.083,0.824-2.434,1.814
		c-0.104,0.248-0.124,0.516-0.124,0.866v6.022h-1.815V230.21z"/>
	<path fill="#BCBEC0" d="M428.465,232.478v2.393h2.599v1.383h-2.599v5.383c0,1.236,0.351,1.938,1.361,1.938
		c0.494,0,0.783-0.041,1.052-0.123l0.082,1.382c-0.351,0.124-0.907,0.247-1.608,0.247c-0.846,0-1.526-0.289-1.959-0.763
		c-0.495-0.558-0.701-1.444-0.701-2.619v-5.444h-1.547v-1.383h1.547v-1.836L428.465,232.478z"/>
	<path fill="#BCBEC0" d="M434.016,240.171c0.041,2.454,1.588,3.465,3.402,3.465c1.3,0,2.104-0.227,2.764-0.495l0.33,1.278
		c-0.639,0.289-1.753,0.64-3.341,0.64c-3.052,0-4.909-2.042-4.909-5.032c0-3.031,1.795-5.403,4.703-5.403
		c3.258,0,4.104,2.866,4.104,4.702c0,0.371-0.02,0.66-0.062,0.866L434.016,240.171z M439.317,238.873
		c0.02-1.135-0.475-2.949-2.496-2.949c-1.856,0-2.641,1.69-2.784,2.949H439.317z"/>
	<path fill="#BCBEC0" d="M443.317,237.573c0-1.052-0.021-1.877-0.082-2.702h1.608l0.103,1.629h0.042
		c0.495-0.928,1.649-1.855,3.3-1.855c1.382,0,3.527,0.825,3.527,4.248v5.961H450v-5.754c0-1.609-0.599-2.971-2.31-2.971
		c-1.176,0-2.104,0.846-2.434,1.857c-0.083,0.227-0.125,0.557-0.125,0.845v6.022h-1.814V237.573z"/>
	<path fill="#BCBEC0" d="M454.763,237.573c0-1.052-0.041-1.877-0.083-2.702h1.589l0.083,1.609h0.061
		c0.558-0.949,1.486-1.836,3.156-1.836c1.34,0,2.371,0.825,2.805,2h0.041c0.311-0.577,0.723-0.989,1.135-1.299
		c0.598-0.453,1.238-0.701,2.186-0.701c1.342,0,3.301,0.866,3.301,4.331v5.878h-1.773v-5.65c0-1.939-0.723-3.074-2.166-3.074
		c-1.053,0-1.836,0.764-2.166,1.63c-0.082,0.269-0.145,0.599-0.145,0.907v6.188h-1.773v-5.98c0-1.609-0.701-2.744-2.082-2.744
		c-1.114,0-1.96,0.908-2.248,1.815c-0.104,0.269-0.145,0.577-0.145,0.887v6.022h-1.774V237.573z"/>
	<path fill="#BCBEC0" d="M472.995,240.171c0.041,2.454,1.588,3.465,3.402,3.465c1.301,0,2.104-0.227,2.764-0.495l0.33,1.278
		c-0.639,0.289-1.752,0.64-3.34,0.64c-3.053,0-4.908-2.042-4.908-5.032c0-3.031,1.793-5.403,4.701-5.403
		c3.26,0,4.104,2.866,4.104,4.702c0,0.371-0.02,0.66-0.061,0.866L472.995,240.171z M478.295,238.873
		c0.02-1.135-0.475-2.949-2.496-2.949c-1.855,0-2.639,1.69-2.783,2.949H478.295z"/>
	<path fill="#BCBEC0" d="M482.295,237.573c0-1.052-0.02-1.877-0.082-2.702h1.609l0.102,1.629h0.041
		c0.496-0.928,1.65-1.855,3.301-1.855c1.381,0,3.527,0.825,3.527,4.248v5.961h-1.816v-5.754c0-1.609-0.598-2.971-2.309-2.971
		c-1.176,0-2.104,0.846-2.434,1.857c-0.084,0.227-0.125,0.557-0.125,0.845v6.022h-1.814V237.573z"/>
	<path fill="#BCBEC0" d="M495.848,232.478v2.393h2.598v1.383h-2.598v5.383c0,1.236,0.35,1.938,1.361,1.938
		c0.494,0,0.783-0.041,1.051-0.123l0.084,1.382c-0.352,0.124-0.908,0.247-1.609,0.247c-0.846,0-1.525-0.289-1.959-0.763
		c-0.496-0.558-0.701-1.444-0.701-2.619v-5.444h-1.547v-1.383h1.547v-1.836L495.848,232.478z"/>
</g>
<g>
	<path fill="#BCBEC0" d="M191,309.781h-4.228v-1.525h10.292v1.525h-4.249v12.375H191V309.781z"/>
	<path fill="#BCBEC0" d="M197.643,315.289c0-1.176-0.021-2.188-0.083-3.115h1.588l0.083,1.959h0.062
		c0.454-1.34,1.567-2.186,2.784-2.186c0.186,0,0.33,0.021,0.495,0.062v1.69c-0.207-0.021-0.392-0.041-0.64-0.041
		c-1.279,0-2.186,0.97-2.434,2.31c-0.041,0.269-0.062,0.557-0.062,0.866v5.321h-1.815L197.643,315.289z"/>
	<path fill="#BCBEC0" d="M208.308,322.382c-2.681,0-4.785-1.979-4.785-5.135c0-3.342,2.207-5.301,4.95-5.301
		c2.867,0,4.806,2.083,4.806,5.115c0,3.712-2.578,5.32-4.95,5.32H208.308z M208.37,321.021c1.732,0,3.032-1.629,3.032-3.897
		c0-1.691-0.846-3.815-2.99-3.815c-2.125,0-3.053,1.98-3.053,3.877c0,2.187,1.238,3.836,2.991,3.836H208.37z"/>
	<path fill="#BCBEC0" d="M223.92,319.433c0,1.031,0.021,1.939,0.083,2.723h-1.609l-0.103-1.629h-0.041
		c-0.454,0.804-1.526,1.855-3.3,1.855c-1.567,0-3.444-0.887-3.444-4.372v-5.837h1.815v5.507c0,1.897,0.598,3.196,2.227,3.196
		c1.217,0,2.062-0.846,2.393-1.67c0.103-0.248,0.165-0.578,0.165-0.928v-6.105h1.815V319.433z"/>
	<path fill="#BCBEC0" d="M235.469,320.691c0,2.311-0.474,3.692-1.423,4.579c-0.99,0.887-2.393,1.196-3.651,1.196
		c-1.196,0-2.516-0.289-3.32-0.825l0.454-1.402c0.66,0.433,1.691,0.804,2.929,0.804c1.856,0,3.217-0.969,3.217-3.506v-1.093h-0.041
		c-0.536,0.929-1.629,1.671-3.176,1.671c-2.475,0-4.249-2.104-4.249-4.889c0-3.382,2.207-5.279,4.517-5.279
		c1.732,0,2.661,0.887,3.114,1.712h0.042l0.062-1.485h1.609c-0.062,0.701-0.083,1.506-0.083,2.723V320.691z M233.654,316.092
		c0-0.288-0.021-0.557-0.103-0.804c-0.33-1.073-1.196-1.939-2.537-1.939c-1.732,0-2.97,1.465-2.97,3.795
		c0,1.938,1.011,3.589,2.949,3.589c1.134,0,2.145-0.702,2.516-1.877c0.104-0.288,0.145-0.64,0.145-0.97V316.092z"/>
	<path fill="#BCBEC0" d="M238.459,307.513h1.815v6.229h0.042c0.289-0.516,0.742-0.99,1.299-1.279
		c0.536-0.33,1.175-0.516,1.856-0.516c1.341,0,3.486,0.825,3.486,4.27v5.939h-1.815v-5.733c0-1.63-0.598-2.97-2.31-2.97
		c-1.176,0-2.083,0.824-2.434,1.814c-0.103,0.248-0.124,0.516-0.124,0.866v6.022h-1.815V307.513z"/>
	<path fill="#BCBEC0" d="M258.34,322.382c-2.681,0-4.785-1.979-4.785-5.135c0-3.342,2.207-5.301,4.95-5.301
		c2.867,0,4.806,2.083,4.806,5.115c0,3.712-2.578,5.32-4.95,5.32H258.34z M258.402,321.021c1.732,0,3.032-1.629,3.032-3.897
		c0-1.691-0.846-3.815-2.991-3.815c-2.124,0-3.052,1.98-3.052,3.877c0,2.187,1.238,3.836,2.991,3.836H258.402z"/>
	<path fill="#BCBEC0" d="M265.765,322.156v-8.6h-1.382v-1.383h1.382v-0.475c0-1.402,0.33-2.681,1.176-3.484
		c0.681-0.66,1.588-0.929,2.413-0.929c0.66,0,1.196,0.145,1.547,0.289l-0.227,1.402c-0.289-0.124-0.639-0.228-1.176-0.228
		c-1.526,0-1.938,1.361-1.938,2.888v0.536h2.413v1.383h-2.393v8.6H265.765z"/>
	<path fill="#BCBEC0" d="M276.036,308.441c1.114-0.165,2.413-0.289,3.836-0.289c2.578,0,4.414,0.578,5.63,1.712
		c1.258,1.134,1.98,2.764,1.98,5.012c0,2.269-0.722,4.125-2,5.403c-1.32,1.299-3.465,2-6.167,2c-1.299,0-2.351-0.041-3.279-0.164
		V308.441z M277.851,320.753c0.454,0.082,1.114,0.082,1.815,0.082c3.836,0.021,5.919-2.145,5.919-5.898
		c0.021-3.32-1.835-5.361-5.63-5.361c-0.928,0-1.629,0.082-2.104,0.186V320.753z"/>
	<path fill="#BCBEC0" d="M290.636,310.337c-0.68,0-1.134-0.535-1.134-1.175s0.475-1.155,1.176-1.155s1.155,0.516,1.155,1.155
		s-0.454,1.175-1.175,1.175H290.636z M289.77,322.156v-9.982h1.815v9.982H289.77z"/>
	<path fill="#BCBEC0" d="M294.348,320.32c0.557,0.33,1.505,0.701,2.413,0.701c1.299,0,1.918-0.639,1.918-1.484
		c0-0.866-0.516-1.341-1.836-1.836c-1.815-0.66-2.66-1.629-2.66-2.825c0-1.608,1.32-2.929,3.444-2.929
		c1.011,0,1.897,0.268,2.434,0.619l-0.433,1.299c-0.392-0.227-1.114-0.577-2.042-0.577c-1.072,0-1.65,0.618-1.65,1.36
		c0,0.846,0.578,1.217,1.877,1.713c1.711,0.639,2.619,1.505,2.619,3.011c0,1.773-1.382,3.011-3.712,3.011
		c-1.093,0-2.104-0.289-2.805-0.701L294.348,320.32z"/>
	<path fill="#BCBEC0" d="M303.628,310.337c-0.68,0-1.134-0.535-1.134-1.175s0.475-1.155,1.176-1.155s1.155,0.516,1.155,1.155
		s-0.454,1.175-1.175,1.175H303.628z M302.762,322.156v-9.982h1.815v9.982H302.762z"/>
	<path fill="#BCBEC0" d="M307.588,307.513h1.815v14.643h-1.815V307.513z"/>
	<path fill="#BCBEC0" d="M312.414,307.513h1.815v14.643h-1.815V307.513z"/>
	<path fill="#BCBEC0" d="M325.593,319.433c0,1.031,0.021,1.939,0.083,2.723h-1.609l-0.104-1.629h-0.041
		c-0.453,0.804-1.525,1.855-3.3,1.855c-1.567,0-3.444-0.887-3.444-4.372v-5.837h1.815v5.507c0,1.897,0.599,3.196,2.228,3.196
		c1.217,0,2.062-0.846,2.393-1.67c0.103-0.248,0.164-0.578,0.164-0.928v-6.105h1.815V319.433z"/>
	<path fill="#BCBEC0" d="M328.356,320.32c0.557,0.33,1.506,0.701,2.413,0.701c1.3,0,1.919-0.639,1.919-1.484
		c0-0.866-0.516-1.341-1.836-1.836c-1.815-0.66-2.66-1.629-2.66-2.825c0-1.608,1.319-2.929,3.443-2.929
		c1.011,0,1.897,0.268,2.434,0.619l-0.433,1.299c-0.392-0.227-1.114-0.577-2.042-0.577c-1.072,0-1.65,0.618-1.65,1.36
		c0,0.846,0.578,1.217,1.877,1.713c1.712,0.639,2.619,1.505,2.619,3.011c0,1.773-1.381,3.011-3.712,3.011
		c-1.093,0-2.104-0.289-2.805-0.701L328.356,320.32z"/>
	<path fill="#BCBEC0" d="M337.637,310.337c-0.681,0-1.135-0.535-1.135-1.175s0.475-1.155,1.176-1.155s1.154,0.516,1.154,1.155
		s-0.453,1.175-1.175,1.175H337.637z M336.77,322.156v-9.982h1.815v9.982H336.77z"/>
	<path fill="#BCBEC0" d="M345.66,322.382c-2.681,0-4.784-1.979-4.784-5.135c0-3.342,2.207-5.301,4.949-5.301
		c2.867,0,4.807,2.083,4.807,5.115c0,3.712-2.578,5.32-4.951,5.32H345.66z M345.721,321.021c1.732,0,3.033-1.629,3.033-3.897
		c0-1.691-0.846-3.815-2.992-3.815c-2.123,0-3.052,1.98-3.052,3.877c0,2.187,1.237,3.836,2.991,3.836H345.721z"/>
	<path fill="#BCBEC0" d="M352.918,314.875c0-1.052-0.02-1.877-0.082-2.702h1.609l0.104,1.629h0.041
		c0.494-0.928,1.648-1.855,3.299-1.855c1.383,0,3.527,0.825,3.527,4.248v5.961h-1.814v-5.754c0-1.609-0.6-2.971-2.311-2.971
		c-1.176,0-2.104,0.846-2.434,1.857c-0.082,0.227-0.123,0.557-0.123,0.845v6.022h-1.816V314.875z"/>
	<path fill="#BCBEC0" d="M364.366,314.875c0-1.052-0.043-1.877-0.084-2.702h1.588l0.084,1.609h0.061
		c0.557-0.949,1.486-1.836,3.156-1.836c1.34,0,2.371,0.825,2.805,2h0.041c0.311-0.577,0.723-0.989,1.135-1.299
		c0.598-0.453,1.238-0.701,2.186-0.701c1.342,0,3.301,0.866,3.301,4.331v5.878h-1.773v-5.65c0-1.939-0.723-3.074-2.166-3.074
		c-1.053,0-1.836,0.764-2.166,1.63c-0.082,0.269-0.145,0.599-0.145,0.907v6.188h-1.773v-5.98c0-1.609-0.701-2.744-2.082-2.744
		c-1.115,0-1.961,0.908-2.248,1.815c-0.104,0.269-0.145,0.577-0.145,0.887v6.022h-1.773V314.875z"/>
	<path fill="#BCBEC0" d="M382.598,317.474c0.041,2.454,1.588,3.465,3.402,3.465c1.299,0,2.104-0.227,2.764-0.495l0.33,1.278
		c-0.641,0.289-1.754,0.64-3.342,0.64c-3.053,0-4.908-2.042-4.908-5.032c0-3.031,1.795-5.403,4.703-5.403
		c3.258,0,4.104,2.866,4.104,4.702c0,0.371-0.021,0.66-0.062,0.866L382.598,317.474z M387.897,316.175
		c0.021-1.135-0.473-2.949-2.494-2.949c-1.857,0-2.641,1.69-2.785,2.949H387.897z"/>
	<path fill="#BCBEC0" d="M391.899,314.875c0-1.052-0.021-1.877-0.084-2.702h1.609l0.104,1.629h0.041
		c0.494-0.928,1.65-1.855,3.299-1.855c1.383,0,3.527,0.825,3.527,4.248v5.961h-1.814v-5.754c0-1.609-0.598-2.971-2.311-2.971
		c-1.176,0-2.104,0.846-2.434,1.857c-0.082,0.227-0.123,0.557-0.123,0.845v6.022h-1.814V314.875z"/>
	<path fill="#BCBEC0" d="M405.45,309.781v2.393h2.598v1.383h-2.598v5.383c0,1.236,0.35,1.938,1.361,1.938
		c0.494,0,0.783-0.041,1.051-0.123l0.084,1.382c-0.352,0.124-0.908,0.247-1.609,0.247c-0.846,0-1.525-0.289-1.959-0.763
		c-0.496-0.558-0.701-1.444-0.701-2.619v-5.444h-1.547v-1.383h1.547v-1.836L405.45,309.781z"/>
</g>
<g>
	<path fill="#BCBEC0" d="M60.176,343.395h-4.228v-1.526H66.24v1.526h-4.249v12.374h-1.815V343.395z"/>
	<path fill="#BCBEC0" d="M67.436,351.087c0.042,2.455,1.588,3.465,3.403,3.465c1.299,0,2.104-0.227,2.764-0.494l0.33,1.278
		c-0.639,0.288-1.753,0.64-3.341,0.64c-3.052,0-4.909-2.042-4.909-5.033c0-3.031,1.794-5.402,4.702-5.402
		c3.259,0,4.104,2.866,4.104,4.701c0,0.371-0.021,0.66-0.062,0.867L67.436,351.087z M72.737,349.789
		c0.021-1.135-0.475-2.949-2.496-2.949c-1.856,0-2.64,1.691-2.784,2.949H72.737z"/>
	<path fill="#BCBEC0" d="M83.853,355.419c-0.475,0.227-1.526,0.577-2.867,0.577c-3.011,0-4.97-2.042-4.97-5.114
		c0-3.074,2.104-5.322,5.362-5.322c1.072,0,2.021,0.269,2.516,0.537l-0.413,1.381c-0.433-0.227-1.114-0.474-2.104-0.474
		c-2.289,0-3.527,1.712-3.527,3.795c0,2.31,1.485,3.733,3.465,3.733c1.031,0,1.712-0.248,2.228-0.475L83.853,355.419z"/>
	<path fill="#BCBEC0" d="M85.977,341.126h1.815v6.229h0.042c0.289-0.516,0.742-0.99,1.299-1.279c0.536-0.33,1.175-0.516,1.856-0.516
		c1.341,0,3.486,0.826,3.486,4.27v5.939H92.66v-5.732c0-1.63-0.598-2.971-2.31-2.971c-1.176,0-2.083,0.825-2.434,1.814
		c-0.103,0.248-0.124,0.516-0.124,0.867v6.021h-1.815V341.126z"/>
	<path fill="#BCBEC0" d="M97.423,348.49c0-1.053-0.021-1.877-0.083-2.702h1.609l0.103,1.629h0.042c0.495-0.928,1.65-1.856,3.3-1.856
		c1.382,0,3.527,0.826,3.527,4.249v5.96h-1.815v-5.754c0-1.608-0.598-2.97-2.31-2.97c-1.176,0-2.104,0.846-2.434,1.856
		c-0.083,0.227-0.124,0.557-0.124,0.846v6.021h-1.815V348.49z"/>
	<path fill="#BCBEC0" d="M112.932,355.997c-2.681,0-4.785-1.979-4.785-5.136c0-3.341,2.207-5.301,4.95-5.301
		c2.867,0,4.806,2.084,4.806,5.115c0,3.713-2.578,5.321-4.95,5.321H112.932z M112.994,354.635c1.732,0,3.032-1.63,3.032-3.897
		c0-1.691-0.846-3.816-2.99-3.816c-2.125,0-3.053,1.98-3.053,3.878c0,2.187,1.238,3.836,2.991,3.836H112.994z"/>
	<path fill="#BCBEC0" d="M120.191,341.126h1.815v14.643h-1.815V341.126z"/>
	<path fill="#BCBEC0" d="M129.081,355.997c-2.681,0-4.785-1.979-4.785-5.136c0-3.341,2.207-5.301,4.95-5.301
		c2.867,0,4.806,2.084,4.806,5.115c0,3.713-2.578,5.321-4.95,5.321H129.081z M129.143,354.635c1.732,0,3.032-1.63,3.032-3.897
		c0-1.691-0.846-3.816-2.99-3.816c-2.125,0-3.053,1.98-3.053,3.878c0,2.187,1.238,3.836,2.991,3.836H129.143z"/>
	<path fill="#BCBEC0" d="M144.898,354.305c0,2.31-0.474,3.692-1.423,4.579c-0.99,0.887-2.393,1.195-3.651,1.195
		c-1.196,0-2.516-0.289-3.32-0.824l0.454-1.402c0.66,0.433,1.691,0.804,2.929,0.804c1.856,0,3.217-0.97,3.217-3.506v-1.093h-0.041
		c-0.536,0.928-1.629,1.67-3.176,1.67c-2.475,0-4.249-2.104-4.249-4.888c0-3.382,2.207-5.28,4.517-5.28
		c1.732,0,2.661,0.887,3.114,1.713h0.042l0.062-1.485h1.609c-0.062,0.701-0.083,1.505-0.083,2.722V354.305z M143.083,349.707
		c0-0.289-0.021-0.557-0.103-0.805c-0.33-1.072-1.196-1.939-2.537-1.939c-1.732,0-2.97,1.465-2.97,3.795
		c0,1.939,1.011,3.59,2.949,3.59c1.134,0,2.145-0.702,2.516-1.877c0.104-0.289,0.145-0.641,0.145-0.97V349.707z"/>
	<path fill="#BCBEC0" d="M148.529,345.788l2.166,5.898c0.248,0.659,0.495,1.444,0.66,2.042h0.041
		c0.186-0.598,0.392-1.361,0.639-2.084l1.98-5.856h1.918l-2.723,7.115c-1.299,3.423-2.186,5.177-3.423,6.27
		c-0.908,0.763-1.774,1.073-2.228,1.155l-0.454-1.526c0.454-0.124,1.052-0.413,1.588-0.887c0.495-0.392,1.093-1.093,1.526-2.021
		c0.082-0.186,0.144-0.31,0.144-0.433c0-0.104-0.041-0.248-0.144-0.454l-3.671-9.219H148.529z"/>
	<path fill="#BCBEC0" d="M163.815,343.395h-4.228v-1.526h10.292v1.526h-4.249v12.374h-1.815V343.395z"/>
	<path fill="#BCBEC0" d="M170.458,348.902c0-1.176-0.021-2.187-0.083-3.114h1.588l0.083,1.959h0.062
		c0.454-1.341,1.567-2.187,2.784-2.187c0.186,0,0.33,0.021,0.495,0.062v1.691c-0.207-0.021-0.392-0.041-0.64-0.041
		c-1.279,0-2.186,0.969-2.434,2.309c-0.041,0.27-0.062,0.558-0.062,0.867v5.32h-1.815L170.458,348.902z"/>
	<path fill="#BCBEC0" d="M178.128,343.952c-0.68,0-1.134-0.536-1.134-1.175c0-0.641,0.475-1.155,1.176-1.155
		s1.155,0.515,1.155,1.155c0,0.639-0.454,1.175-1.175,1.175H178.128z M177.262,355.769v-9.981h1.815v9.981H177.262z"/>
	<path fill="#BCBEC0" d="M190.626,354.305c0,2.31-0.474,3.692-1.423,4.579c-0.99,0.887-2.393,1.195-3.651,1.195
		c-1.196,0-2.516-0.289-3.32-0.824l0.454-1.402c0.66,0.433,1.691,0.804,2.929,0.804c1.856,0,3.217-0.97,3.217-3.506v-1.093h-0.041
		c-0.536,0.928-1.629,1.67-3.176,1.67c-2.475,0-4.249-2.104-4.249-4.888c0-3.382,2.207-5.28,4.517-5.28
		c1.732,0,2.661,0.887,3.114,1.713h0.042l0.062-1.485h1.609c-0.062,0.701-0.083,1.505-0.083,2.722V354.305z M188.811,349.707
		c0-0.289-0.021-0.557-0.103-0.805c-0.33-1.072-1.196-1.939-2.537-1.939c-1.732,0-2.97,1.465-2.97,3.795
		c0,1.939,1.011,3.59,2.949,3.59c1.134,0,2.145-0.702,2.516-1.877c0.104-0.289,0.145-0.641,0.145-0.97V349.707z"/>
	<path fill="#BCBEC0" d="M202.154,354.305c0,2.31-0.474,3.692-1.423,4.579c-0.99,0.887-2.393,1.195-3.651,1.195
		c-1.196,0-2.516-0.289-3.32-0.824l0.454-1.402c0.66,0.433,1.691,0.804,2.929,0.804c1.856,0,3.217-0.97,3.217-3.506v-1.093h-0.041
		c-0.536,0.928-1.629,1.67-3.176,1.67c-2.475,0-4.249-2.104-4.249-4.888c0-3.382,2.207-5.28,4.517-5.28
		c1.732,0,2.661,0.887,3.114,1.713h0.042l0.062-1.485h1.609c-0.062,0.701-0.083,1.505-0.083,2.722V354.305z M200.339,349.707
		c0-0.289-0.021-0.557-0.103-0.805c-0.33-1.072-1.196-1.939-2.537-1.939c-1.732,0-2.97,1.465-2.97,3.795
		c0,1.939,1.011,3.59,2.949,3.59c1.134,0,2.145-0.702,2.516-1.877c0.104-0.289,0.145-0.641,0.145-0.97V349.707z"/>
	<path fill="#BCBEC0" d="M206.176,351.087c0.042,2.455,1.588,3.465,3.403,3.465c1.299,0,2.104-0.227,2.764-0.494l0.33,1.278
		c-0.639,0.288-1.753,0.64-3.341,0.64c-3.053,0-4.909-2.042-4.909-5.033c0-3.031,1.794-5.402,4.702-5.402
		c3.259,0,4.104,2.866,4.104,4.701c0,0.371-0.021,0.66-0.062,0.867L206.176,351.087z M211.477,349.789
		c0.021-1.135-0.475-2.949-2.496-2.949c-1.856,0-2.64,1.691-2.784,2.949H211.477z"/>
	<path fill="#BCBEC0" d="M215.498,348.902c0-1.176-0.021-2.187-0.083-3.114h1.588l0.083,1.959h0.062
		c0.454-1.341,1.567-2.187,2.784-2.187c0.186,0,0.33,0.021,0.495,0.062v1.691c-0.207-0.021-0.392-0.041-0.64-0.041
		c-1.279,0-2.186,0.969-2.434,2.309c-0.041,0.27-0.062,0.558-0.062,0.867v5.32h-1.815L215.498,348.902z"/>
</g>
<g>
	<polyline fill="none" stroke="#FFFFFF" stroke-width="3" points="38.137,30.757 38.137,367.399 581.649,367.399 	"/>
	<path fill="#FFFFFF" d="M590.702,367.399c-4.26,1.581-9.545,4.277-12.82,7.132l2.58-7.132l-2.58-7.132
		C581.157,363.122,586.442,365.819,590.702,367.399z"/>
	<polygon fill="#FFFFFF" points="38.137,20.167 44.235,35.091 38.137,31.549 32.041,35.091 	"/>
</g>
<text transform="matrix(1 0 0 1 0 10.3379)" fill="#FFFFFF" font-family="'LucidaSans-Demi'" font-size="12">EXPECTATIONS</text>
<text transform="matrix(1 0 0 1 564.2251 347.3491)" fill="#FFFFFF" font-family="'LucidaSans-Demi'" font-size="12">TIME</text>
</svg>
